<svg width="27" height="24" viewBox="0 0 27 24" fill="none" xmlns="http://www.w3.org/2000/svg">
<g clip-path="url(#clip0_23504_116)">
<path d="M11.2281 17.709C9.70064 17.709 8.47272 18.8845 8.47272 20.3119C8.47272 21.7673 9.70064 22.9428 11.2281 22.9428C12.7555 22.9428 13.9834 21.7673 13.9834 20.3119C13.9834 18.8565 12.7555 17.709 11.2281 17.709ZM11.2281 21.2635C10.689 21.2635 10.2697 20.8437 10.2697 20.3119C10.2697 19.8081 10.689 19.3883 11.2281 19.3883C11.7671 19.3883 12.1864 19.8081 12.1864 20.3119C12.1864 20.8157 11.7671 21.2635 11.2281 21.2635Z" fill="#9758A6"/>
<path d="M22.219 17.709C20.6915 17.709 19.4636 18.8845 19.4636 20.3119C19.4636 21.7673 20.6915 22.9428 22.219 22.9428C23.7464 22.9428 24.9743 21.7673 24.9743 20.3119C24.9444 18.8565 23.7164 17.709 22.219 17.709ZM22.219 21.2635C21.6799 21.2635 21.2606 20.8437 21.2606 20.3119C21.2606 19.8081 21.6799 19.3883 22.219 19.3883C22.758 19.3883 23.1773 19.8081 23.1773 20.3119C23.1474 20.8157 22.7281 21.2635 22.219 21.2635Z" fill="#9758A6"/>
<path d="M25.9927 4.27463C25.813 4.05073 25.5435 3.93877 25.2739 3.93877H7.51398L7.12464 2.76326C6.76525 1.69971 5.74697 1 4.549 1H1.76371C1.25458 1 0.865234 1.36385 0.865234 1.83965C0.865234 2.31545 1.25458 2.6793 1.76371 2.6793H4.549C4.93834 2.6793 5.29773 2.90321 5.41753 3.26705L8.68201 12.895L8.65206 12.979C8.26271 13.8466 8.35256 14.8262 8.89165 15.6379C9.46069 16.4216 10.3891 16.8974 11.4074 16.8974H23.6866C24.1957 16.8974 24.5851 16.5335 24.5851 16.0577C24.5851 15.5819 24.1957 15.2181 23.6866 15.2181H11.4074C10.9881 15.2181 10.6287 15.0222 10.4191 14.7143C10.2094 14.4064 10.1495 14.0146 10.2993 13.6787H20.8115C22.249 13.6787 23.5069 12.8111 23.9562 11.5236L26.1425 5.03032C26.2023 4.77842 26.1425 4.49854 25.9927 4.27463ZM20.7815 11.9994H10.2394L8.08302 5.61807H24.046L22.249 11.0198C22.0094 11.6076 21.4404 11.9994 20.7815 11.9994Z" fill="#9758A6"/>
</g>
<defs>
<clipPath id="clip0_23504_116">
<rect width="25.3002" height="24" fill="white" transform="translate(0.865234)"/>
</clipPath>
</defs>
</svg>
